<svg xmlns="http://www.w3.org/2000/svg" xmlns:xlink="http://www.w3.org/1999/xlink" width="733.558" height="479.169" viewBox="0 0 733.558 479.169"><defs><linearGradient id="a" x1="-0.03" y1="0.503" x2="0.97" y2="0.503" gradientUnits="objectBoundingBox"><stop offset="0" stop-color="gray" stop-opacity="0.251"/><stop offset="0.54" stop-color="gray" stop-opacity="0.122"/><stop offset="1" stop-color="gray" stop-opacity="0.102"/></linearGradient></defs><g transform="translate(-1052.442 -310.751)"><path d="M414.38,167.094c-46.329,7.829-92.593,4.473-137.1-.409s-88.9-11.256-135.247-9.335c-29.815,1.233-63.018,7.14-83.836,24.31-20.039,16.514-23.161,38.8-23.2,58.916-.052,15.131,1.259,30.788,11.983,42.843,7.452,8.361,18.922,14.352,27.562,22.071C104.606,332.3,95.466,374.512,75.739,410.4c-9.257,16.839-20.578,33.4-26.881,50.633s-7.14,35.7,4.141,49.756c11.178,13.937,32.8,21.792,55.345,25.862,45.79,8.27,96.806,3.135,146.166-3.823,109.243-15.456,217.357-39.552,325.236-63.589,39.915-8.9,80.006-17.838,118.461-30.665,21.357-7.141,43.1-16.027,56.9-29.86,17.527-17.527,17.968-41.5,1.078-55.826-28.341-24.018-92.489-18.689-114.41-46.147-12.061-15.118-6.809-35.651,2.791-53.787,20.584-38.9,60.37-77.325,55.216-116.1-3.557-26.615-30.7-48.64-67.075-54.378-38.13-6.011-87.1,5.388-109.055,32.171C501.078,142.239,455.288,160.161,414.38,167.094Z" transform="translate(1017.444 229.845)" fill="#c3c3c3" opacity="0.1"/><rect width="183.984" height="42.603" transform="translate(1286.106 543.962)" fill="#565661"/><rect width="183.984" height="42.603" transform="translate(1286.106 543.962)" opacity="0.1"/><path d="M384.3,427.03,385.6,540.765l-17.7,44.674L366.53,427.03Z" transform="translate(923.815 160.937)" fill="#bcbec9"/><path d="M362.99,371.84l179.129,1.078v31.73H362.99Z" transform="translate(925.057 180.301)" fill="#565661"/><path d="M615.33,427.03l15.326,2.161v154.52L615.33,536.448Z" transform="translate(836.52 160.937)" fill="#bcbec9"/><rect width="86.329" height="183.446" transform="translate(1472.999 545.67)" fill="#efeff0"/><rect width="72.515" height="141.012" transform="translate(1479.905 550.765)" fill="#565661"/><rect width="72.515" height="141.012" transform="translate(1479.905 550.765)" opacity="0.1"/><rect width="72.515" height="31.295" transform="translate(1479.905 553.654)" fill="#565661"/><rect width="72.515" height="66.471" transform="translate(1479.905 587.967)" fill="#565661"/><rect width="72.515" height="66.471" transform="translate(1479.905 658.541)" fill="#565661"/><rect width="72.515" height="66.471" transform="translate(1479.905 658.541)" opacity="0.1"/><ellipse cx="4.674" cy="5.972" rx="4.674" ry="5.972" transform="translate(1478.256 729.115)" fill="#565661"/><ellipse cx="4.674" cy="5.972" rx="4.674" ry="5.972" transform="translate(1543.073 729.401)" fill="#565661"/><path d="M356.316,563.436h6.258l-1.72-199.116h-9.5Z" transform="translate(929.141 182.94)" fill="#efeff0"/><path d="M638.94,361.87V560.849h5.823V363.46Z" transform="translate(828.236 183.8)" fill="#efeff0"/><path d="M366.46,419.38v7.127H543.336v-5.18Z" transform="translate(923.839 163.621)" fill="#efeff0"/><path d="M372.565,341.26H596.8l32.587,10.789v6.258l-279.7-2.155v-6.368Z" transform="translate(929.723 191.031)" fill="#fff"/><path d="M349.69,354.39l279.7,2.265v6.258l-279.7-2.155Z" transform="translate(929.723 186.424)" fill="#bcbec9"/><path d="M422.908,548.956l-1.3-.195V548.6c-.039-.305-.084-.6-.13-.909.532.422,1.039.844,1.506,1.266Z" transform="translate(881.841 66.067)" fill="url(#a)"/><path d="M375.223,703.411c.844-.195,1.7-.357,2.558-.474a30.783,30.783,0,0,1,17.28,2.545c-.545,4.012-1.084,8.16.071,12.035.8,2.726,2.421,5.193,2.765,8.036a4.738,4.738,0,0,1,3.732,3.3,7.172,7.172,0,0,1,.37,2.311,12.338,12.338,0,0,1-.364,2.882,2.908,2.908,0,0,1-3.116,2.6c-5.024.571-9.951-1.409-14.625-3.35l-9.088-3.778c-1.065-.441-2.136-.889-3.155-1.435a17.284,17.284,0,0,1-5.057-4.135,2.3,2.3,0,0,1-.6-1.09c-.169-1.142,1.168-1.824,2.019-2.6a4.048,4.048,0,0,0,.649-.792c1.006-1.519,1.1-3.616,1.707-5.407,1.428-4.252,5.842-6.991,7.4-11.139.084-.227.162-.454.227-.688" transform="translate(901.315 11.845)" fill="#a26565"/><path d="M402,740.477a12.338,12.338,0,0,1-.364,2.882,2.908,2.908,0,0,1-3.116,2.6c-5.024.571-9.951-1.409-14.625-3.35l-9.088-3.778c-1.065-.441-2.136-.889-3.155-1.435a17.286,17.286,0,0,1-5.057-4.135,2.3,2.3,0,0,1-.6-1.09c-.169-1.143,1.168-1.824,2.019-2.6a4.048,4.048,0,0,0,.649-.792c2.506.539,5.615,2.116,7.53,2.726a22.861,22.861,0,0,1,5.479,2.292c2.389,1.532,4.109,3.895,6.134,5.842s4.641,3.719,7.465,3.479a12.332,12.332,0,0,0,4.245-1.467Z" transform="translate(901.315 2.529)" opacity="0.1"/><path d="M395.546,601.252a3.006,3.006,0,0,1-1.1,3.246c-.85.526-1.947.454-2.791,1.025-1.045.734-1.194,2.188-1.376,3.447-.649,4.33-2.8,8.257-4.635,12.236s-3.388,8.322-2.713,12.645c.461,2.934,1.9,6.063.552,8.705-.331.649-.824,1.227-1.2,1.856-1.85,3.09-.8,7-.87,10.6a2.1,2.1,0,0,1-.253,1.149,3.175,3.175,0,0,1-1.026.792,5.439,5.439,0,0,0-2.214,4.174,15.952,15.952,0,0,0,.584,4.843,2.883,2.883,0,0,0,.8,1.688,2.985,2.985,0,0,0,1.746.493,38.841,38.841,0,0,1,11.853,2.882c2.46,1.026,4.849,2.311,7.465,2.8a1.947,1.947,0,0,0,1.532-.162,2.111,2.111,0,0,0,.649-1.123c1.006-3.31,2.025-6.725,1.681-10.165-.149-1.48-.545-2.928-.649-4.408-.454-5.842,3.5-11.113,4.752-16.878.565-2.6.565-5.284.967-7.906,1.091-7.186,5.05-13.632,6.576-20.74a22.54,22.54,0,0,1,.987-3.895c1.136-2.752,3.765-4.985,3.823-7.965a3.1,3.1,0,0,0-.493-1.857,4.208,4.208,0,0,0-2.317-1.3,79.139,79.139,0,0,0-10.743-2.168,20.356,20.356,0,0,0-5.05-.351,14.866,14.866,0,0,0-6.18,2.181C393.391,598.649,395,599.019,395.546,601.252Z" transform="translate(897.13 49.506)" fill="#454b69"/><path d="M395.546,601.252a3.006,3.006,0,0,1-1.1,3.246c-.85.526-1.947.454-2.791,1.025-1.045.734-1.194,2.188-1.376,3.447-.649,4.33-2.8,8.257-4.635,12.236s-3.388,8.322-2.713,12.645c.461,2.934,1.9,6.063.552,8.705-.331.649-.824,1.227-1.2,1.856-1.85,3.09-.8,7-.87,10.6a2.1,2.1,0,0,1-.253,1.149,3.175,3.175,0,0,1-1.026.792,5.439,5.439,0,0,0-2.214,4.174,15.952,15.952,0,0,0,.584,4.843,2.883,2.883,0,0,0,.8,1.688,2.985,2.985,0,0,0,1.746.493,38.841,38.841,0,0,1,11.853,2.882c2.46,1.026,4.849,2.311,7.465,2.8a1.947,1.947,0,0,0,1.532-.162,2.111,2.111,0,0,0,.649-1.123c1.006-3.31,2.025-6.725,1.681-10.165-.149-1.48-.545-2.928-.649-4.408-.454-5.842,3.5-11.113,4.752-16.878.565-2.6.565-5.284.967-7.906,1.091-7.186,5.05-13.632,6.576-20.74a22.54,22.54,0,0,1,.987-3.895c1.136-2.752,3.765-4.985,3.823-7.965a3.1,3.1,0,0,0-.493-1.857,4.208,4.208,0,0,0-2.317-1.3,79.139,79.139,0,0,0-10.743-2.168,20.356,20.356,0,0,0-5.05-.351,14.866,14.866,0,0,0-6.18,2.181C393.391,598.649,395,599.019,395.546,601.252Z" transform="translate(897.13 49.506)" opacity="0.05"/><path d="M345.462,631.065h-5.537L336.3,556.648l-.253-4.232,4.706-1.655.318,4.5Z" transform="translate(934.509 117.525)" fill="#565661"/><path d="M341.074,555.258l-4.771,1.389-.253-4.232,4.706-1.655Z" transform="translate(934.509 117.525)" opacity="0.1"/><path d="M370.506,636.094l-9.133,1.1L319.3,541.7l-11.347-.831-19.929,5.816-3.875,113.7h-9.133l3.6-117.851-21.869.558-39.026,97.15h-8.3L250.455,526.7l1.584-4.375,61.168-2.1,15.248,8.549.195.493Z" transform="translate(978.943 128.237)" fill="#565661"/><path d="M385.795,610.2c-13.145,3.96-26.79,8.283-26.79,8.283s-12.444,4.343-17.715,0a7.964,7.964,0,0,0-2.2-1.214,10.836,10.836,0,0,0,2.2,1.214l-33.69-10.86,1.577-4.369,61.174-2.1,15.248,8.549Z" transform="translate(921.797 47.307)" opacity="0.1"/><path d="M332.206,583.067l24.907-5.537s59.513,11.074,63.94,15.5c0,0-47.608,9.685-52.866,12.983S331.648,612.96,332.206,583.067Z" transform="translate(913.167 55.598)" fill="#fff"/><path d="M306.344,459.3c-1.947,6.173-7.264,11.736-13.736,12a2.394,2.394,0,0,1-1.37-.247,2.168,2.168,0,0,1-.5-2.6,11.231,11.231,0,0,0,1-2.661,1.74,1.74,0,0,0-.039-.578c-.169-.772-.8-1.461-1.538-1.3a2.6,2.6,0,0,0,.552-3.447,7.788,7.788,0,0,1-.792-1.065c-.539-1.1.3-2.343.649-3.525.721-2.6-1.11-5.193-1.259-7.9-.13-2.421,1.1-4.7,1.4-7.1.487-3.895-1.448-7.627-1.675-11.516a24.386,24.386,0,0,1,1.259-8.017,28.982,28.982,0,0,0,1.428-7.141c0-1.772-.305-3.525-.389-5.29a9.211,9.211,0,0,1,.85-4.7,3.758,3.758,0,0,1,2.136-1.824c2.129-.714,3.525.4,3.836,2.415.519,3.434.221,6.939.9,10.386a48.684,48.684,0,0,0,2.85,9.406c1.149,2.739,2.545,5.388,3.427,8.225a45.307,45.307,0,0,1,1.422,7.14C307.629,446.45,308.311,453.123,306.344,459.3Z" transform="translate(928.318 117.123)" fill="#2097d0"/><path d="M524.722,722.767a10.068,10.068,0,0,1-7.1,4.18c-2.817.351-5.745-.357-8.478.416a2.6,2.6,0,0,0-1.947,1.5,15.933,15.933,0,0,0-.123,1.59c-.318,1.733-2.6,2.123-4.369,2.11l-7.309-.045c-1.519,0-3.2-.084-4.291-1.136a3.194,3.194,0,0,1-.065-4.206,2.638,2.638,0,0,1,.818-.649,2.6,2.6,0,0,1-1.753-2.084,7.752,7.752,0,0,1,.136-2.863c0-2.713.649-7.257,2.558-9.38,2.343-2.642,6.407-6.057,9.945-6.764a7.789,7.789,0,0,1,6.738,1.915c1.675,1.558,2.9,4,5.193,4.271,1.253.156,2.46-.435,3.7-.649a6.888,6.888,0,0,1,7.017,3.707,7.314,7.314,0,0,1,.649,2.032,8.439,8.439,0,0,1-1.324,6.057Z" transform="translate(857.787 10.769)" fill="#a26565"/><path d="M524.857,728.94a10.068,10.068,0,0,1-7.1,4.18c-2.817.351-5.745-.357-8.478.416a2.6,2.6,0,0,0-1.947,1.5,15.914,15.914,0,0,0-.123,1.59c-.318,1.733-2.6,2.123-4.369,2.11l-7.309-.045c-1.519,0-3.2-.084-4.291-1.136a3.193,3.193,0,0,1-.065-4.206c4.219-.175,8.367,0,12.574-.87,1.707-.344,3.388-.8,5.115-1.039,3.739-.532,7.718-.078,11.152-1.662a12.6,12.6,0,0,0,6.128-6.887A8.439,8.439,0,0,1,524.857,728.94Z" transform="translate(857.652 4.596)" opacity="0.1"/><path d="M434.844,654a16.263,16.263,0,0,1-8.913,3.752c-3.272.169-6.745-1.3-8.348-4.141-2.343-4.174-.266-9.977-3.135-13.807-.9-1.2-2.188-2.051-3.135-3.213s-1.493-2.908-.649-4.142c-1.019.39-2.1-.6-2.4-1.649a30.125,30.125,0,0,1-.292-3.246c-.474-2.824-3.246-4.635-4.576-7.14s-1.149-5.758-1.3-8.724a33.106,33.106,0,0,0-7.66-19.7c-.883-1.052-2.012-2.123-3.388-2.071a6.393,6.393,0,0,0-3.395-5.842,16.832,16.832,0,0,0-6.868-1.831c-23.973-2.363-48.951,6.55-71.84-.948-6.368-2.084-12.509-5.57-16.4-11.035a19.293,19.293,0,0,1-3.434-14.593v-.091c.9-4.609,3.337-5.745,7.368-7.848a88.443,88.443,0,0,1,14.534-6.1c9.737-3.044,20.221-4.142,30.269-1.909,4.693,1.052,9.218,2.791,13.917,3.81,1.85.4,3.713.688,5.589.928,2.915.363,5.842.6,8.776.941a132.759,132.759,0,0,1,27.562,6.2,36.1,36.1,0,0,1,9.523,4.466A21.1,21.1,0,0,1,415.117,570c.273,1.909.279,3.895.695,5.745a29.2,29.2,0,0,0,1.558,4.544,302.267,302.267,0,0,1,13.56,42.194,10.25,10.25,0,0,0,1.084,3.051c.831,1.344,2.259,2.246,3.1,3.59,1.947,3.168.071,7.588,1.8,10.886.6,1.142,1.59,2.045,2.188,3.187C441.043,646.939,438.168,651.418,434.844,654Z" transform="translate(928.379 69.278)" fill="#454b69"/><path d="M459.134,598.283a10.706,10.706,0,0,0,2.356-2.6,4.842,4.842,0,0,0,.714-3.356,9.6,9.6,0,0,1-2.525,8.257c-1.629,1.668-4.687,3.3-7.069,2.733C452.948,601.411,457.621,599.568,459.134,598.283Z" transform="translate(870.919 50.405)" opacity="0.1"/><path d="M361.273,547.057a4.355,4.355,0,0,1-2.882,2.973,12.008,12.008,0,0,1-4.278.5h-1.3c-17.033-.377-34.248-4.155-50.886-.552a36.84,36.84,0,0,0-5.881,1.733,26.548,26.548,0,0,0-6.757,3.895v-.091c.9-4.609,3.337-5.745,7.368-7.848a88.452,88.452,0,0,1,14.515-6.037c9.737-3.044,20.221-4.142,30.269-1.909,4.693,1.052,9.218,2.791,13.917,3.81,1.85.4,3.713.688,5.589.928A4.486,4.486,0,0,1,361.273,547.057Z" transform="translate(928.222 69.278)" opacity="0.1"/><path d="M360.252,540.442a4.349,4.349,0,0,1-2.882,2.98,11.862,11.862,0,0,1-4.278.493h-1.3c-17.033-.377-34.248-4.155-50.886-.552a37.532,37.532,0,0,0-5.881,1.727,26.747,26.747,0,0,0-7.043,4.155q-.746-2.051-1.487-4.109c-.6-1.636,1.3-2,1.662-3.466a7.9,7.9,0,0,0-.376-3.181,5.551,5.551,0,0,1-.1-.786,5,5,0,0,1,2.642-4.959c5.7-3.765,12.652-6.349,19.156-8.29a47.388,47.388,0,0,1,10.646-2.064,52.231,52.231,0,0,1,15.2,1.85,65.188,65.188,0,0,1,17.6,6.712c2.661,1.551,5.258,3.5,6.693,6.264a4.934,4.934,0,0,1,.63,3.226Z" transform="translate(929.242 74.964)" fill="#fff"/><path d="M307.166,459.32c-1.947,6.173-7.264,11.736-13.736,12a2.4,2.4,0,0,1-1.37-.247,2.168,2.168,0,0,1-.5-2.6,11.23,11.23,0,0,0,1-2.661,1.741,1.741,0,0,0-.039-.578c3.434-4.843,6.764-9.737,8.082-15.469a8.271,8.271,0,0,0,.24-3.031,26.969,26.969,0,0,0-1.09-3.356,17.5,17.5,0,0,1-.143-6.186,57.125,57.125,0,0,0-4.44-26.673,25.026,25.026,0,0,1-2.181-6.238,3.759,3.759,0,0,1,2.136-1.824c2.129-.714,3.525.4,3.836,2.415.519,3.434.221,6.939.9,10.386a48.691,48.691,0,0,0,2.85,9.406c1.149,2.739,2.545,5.388,3.427,8.224a45.311,45.311,0,0,1,1.422,7.141C308.452,446.474,309.133,453.147,307.166,459.32Z" transform="translate(927.496 117.099)" opacity="0.1"/><path d="M360.958,540.428a4.349,4.349,0,0,1-2.882,2.98,11.858,11.858,0,0,1-4.278.493h-1.3a28.284,28.284,0,0,0-18.825-4.544,30.408,30.408,0,0,1-6.349.552c-4.278-.389-7.744-3.466-11.555-5.433a24.265,24.265,0,0,0-26.894,3.648l-.37.325a5.55,5.55,0,0,1-.1-.785,5,5,0,0,1,2.642-4.959c5.7-3.765,12.652-6.349,19.156-8.289a47.379,47.379,0,0,1,10.646-2.064,52.228,52.228,0,0,1,15.2,1.85,65.193,65.193,0,0,1,17.6,6.712c2.642,1.577,5.238,3.525,6.673,6.29A4.933,4.933,0,0,1,360.958,540.428Z" transform="translate(928.536 74.978)" opacity="0.1"/><path d="M372.391,412.689l-.091.234c-1.454,3.771-4.128,6.959-5.842,10.633-2.162,4.654-2.694,9.873-3.174,14.989a77.867,77.867,0,0,0-.493,13.184c.831,10.828,6.121,21.1,7.536,31.717a35.257,35.257,0,0,1,.266,7.407,7.313,7.313,0,0,1-1.441,4.4c-1.039,1.155-3.057,1.61-4.174.5.5-.954,1.006-1.9,1.512-2.856-2.966-2.3-7.433-.649-10.9-2.09a17.547,17.547,0,0,1-4.025-2.863,28.225,28.225,0,0,0-21.026-6.141,29.989,29.989,0,0,1-6.349.558c-4.278-.4-7.744-3.466-11.555-5.433a24.278,24.278,0,0,0-26.894,3.642c-.909.844-2.129,1.831-3.246,1.3a2.7,2.7,0,0,1-1.006-1.1c-4.252-7.264-1.123-16.631,3.421-23.706s10.562-13.6,12.431-21.8a8.132,8.132,0,0,0,.24-3.031,26.981,26.981,0,0,0-1.091-3.356,17.5,17.5,0,0,1-.143-6.186,57.125,57.125,0,0,0-4.427-26.679c-1.039-2.421-2.272-4.875-2.272-7.5,0-4.142,2.967-7.575,5.42-10.905,2.824-3.83,5.193-8.069,8.77-11.217,3.388-2.993,8.3-4.823,12.489-3.3a77.857,77.857,0,0,1,21.785-2.123,16.685,16.685,0,0,1,7.368,1.61c2.376,1.3,4.083,3.609,6.42,4.992a34.984,34.984,0,0,0,5.531,2.214,22.856,22.856,0,0,1,11.918,10.659c2.6,5.031,3.246,10.815,3.817,16.449C373.715,402.186,374.234,407.7,372.391,412.689Z" transform="translate(931.664 131.611)" fill="#2097d0"/><path d="M400.17,461.715c.831,10.828,6.121,21.1,7.536,31.717-2.83-2.4-6.77-4.8-7.3-7.588-.584-3.012-2.454-6.959-2.765-10s1.824-6.764-.415-8.854c-1.09-1.019,1.811-.734.747-1.779-2.4-2.33-2.986-5.92-3.135-9.25-.253-5.894.493-11.853-.591-17.65a88.845,88.845,0,0,0-3.09-10.458c-1.259-4.044-2.168-8.186-3.077-12.334a86.392,86.392,0,0,1-1.947-11.2c-.279-3.246-.149-6.686,1.3-9.646s4.375-5.362,7.66-5.316c10.983.143,9.088,15.034,11.5,21.915.967,2.739,2.272,5.388,2.8,8.244a21.83,21.83,0,0,1,.312,3.389c-1.454,3.771-4.128,6.959-5.842,10.633-2.161,4.654-2.694,9.873-3.174,14.989A75.477,75.477,0,0,0,400.17,461.715Z" transform="translate(894.284 121.624)" opacity="0.1"/><path d="M407.713,410.973c.967,2.739,2.272,5.388,2.8,8.244.876,4.784-.48,9.867.993,14.5a25.265,25.265,0,0,1,.961,3.031,26.493,26.493,0,0,1-.039,4.479,25.6,25.6,0,0,0,1.435,7.069,126.345,126.345,0,0,1,4.512,24.122,30.238,30.238,0,0,0,1.032,6.491,21.552,21.552,0,0,1,.7,2.194,11.349,11.349,0,0,1,.123,3.006,57.169,57.169,0,0,0-.175,9.542,13.236,13.236,0,0,0,3.895,8.5c-2.129.461-4.382.922-6.459.24-2.921-.954-4.674-3.895-6.16-6.569-1.883-3.414-9.036-6.491-9.776-10.328-.578-3.005-2.447-6.952-2.759-10s1.818-6.758-.422-8.848c-1.084-1.019,1.818-.74.746-1.779-2.389-2.33-2.979-5.92-3.129-9.257-.253-5.888.487-11.847-.591-17.643a89.3,89.3,0,0,0-3.09-10.464c-1.259-4.038-2.168-8.179-3.077-12.334a85.507,85.507,0,0,1-1.947-11.2c-.279-3.246-.156-6.693,1.3-9.653s4.382-5.355,7.66-5.316C407.181,389.194,405.3,404.092,407.713,410.973Z" transform="translate(893.881 121.746)" fill="#2097d0"/><path d="M368.9,424.4c1.026,1.2,2.343,2.519,3.895,2.285a.844.844,0,0,1-1.149.273,2.467,2.467,0,0,1-.863-.993l-2.22-3.746c-.292-.487-2.3-3.323-2.8-1.688C365.57,421.223,368.4,423.813,368.9,424.4Z" transform="translate(901.393 110.86)" opacity="0.1"/><path d="M362.227,437.609a4.946,4.946,0,0,0-1.448-3.246,8.113,8.113,0,0,0-2.681-1.616,19.42,19.42,0,0,0-7.958-1.675c.961,1.4,4.044,2.24,5.589,3.032Q359.014,435.8,362.227,437.609Z" transform="translate(906.872 106.989)" opacity="0.1"/><path d="M367.04,476.887c-.448,3.324-3.168,5.842-5.92,7.79s-5.842,3.622-7.64,6.439c-1.246,1.947-1.8,4.206-2.863,6.238-1.168,2.239-2.915,4.122-4.31,6.225s-2.486,4.615-2.058,7.108a.837.837,0,0,0,.3.6.85.85,0,0,0,.824-.091c2.83-1.48,3.947-4.862,5.135-7.79a90.026,90.026,0,0,1,4.206-8.647,7.964,7.964,0,0,1,2.778-3.434,24.355,24.355,0,0,1,2.739-.954,9.212,9.212,0,0,0,3.382-2.655,22.291,22.291,0,0,0,5.193-15.131c-.039-1.162-.1-6.758-1.85-5.031S367.339,474.628,367.04,476.887Z" transform="translate(908.972 94.3)" opacity="0.1"/><path d="M351.376,283.2c5.583,2.434,10.386,7.79,10.211,13.859-.149,6.375-5.485,12.379-3.648,18.487,1.065,3.544,4.271,5.92,6.809,8.614,9.666,10.23,9.646,28.088-.052,38.3-3.713,3.895-8.484,6.667-12.411,10.386-13.846,13.048-14.437,35.618-7.024,53.138a86.422,86.422,0,0,1-17.28,1.948c-2.72,0-6.05-.461-7.037-3-.909-2.343.649-5.511-1.142-7.244a5.86,5.86,0,0,0-3.246-1.11c-7.309-1.181-13.307-7.017-16.047-13.891s-2.6-14.612-1.026-21.843c1.117-5.226,2.863-10.977.273-15.651-3.246-5.881-12.58-8.361-12.437-15.086.117-5.511,6.615-8.192,10.3-12.288,6.8-7.543,3.564-19.247,3.551-29.412,0-8.945,3.129-18.176,9.789-24.135C320.866,275.332,339.945,278.233,351.376,283.2Z" transform="translate(928.914 160.517)" fill="#a26565"/><g transform="translate(1216.257 456.206)" opacity="0.1"><path d="M300.835,394.893c-2.85-5.141-10.334-7.686-12.074-12.743a7.2,7.2,0,0,0-1.4,4.064c-.143,6.725,9.179,9.2,12.437,15.092a12.262,12.262,0,0,1,1.3,6.764C302.12,403.552,303.023,398.839,300.835,394.893Z" transform="translate(-287.357 -332.056)"/><path d="M397.233,316.515c1.168-3.408,2.863-6.848,2.947-10.386a9.727,9.727,0,0,0-.032-1.149C398.843,308.888,396.844,312.679,397.233,316.515Z" transform="translate(-325.892 -304.98)"/><path d="M309.436,336.4c2.233-7.056.305-15.807.3-23.635,0-.948.039-1.9.11-2.85a37.485,37.485,0,0,0-1.155,9.257C308.7,324.766,309.683,330.829,309.436,336.4Z" transform="translate(-294.842 -306.713)"/><path d="M395.257,391.579c-3.713,3.895-8.484,6.667-12.411,10.386-7.011,6.6-10.613,15.644-11.516,25.232a37.11,37.11,0,0,1,10.477-18.825c3.895-3.7,8.7-6.459,12.411-10.386a27.582,27.582,0,0,0,7.238-17.566A26.361,26.361,0,0,1,395.257,391.579Z" transform="translate(-316.82 -331.449)"/><path d="M335.056,476.1c-2.72,0-6.05-.467-7.037-3.006-.909-2.337.649-5.5-1.142-7.244a5.877,5.877,0,0,0-3.246-1.11c-7.3-1.175-13.3-7.017-16.04-13.885a34.722,34.722,0,0,1-1.947-16.079c-.052.214-.1.429-.143.649-1.545,7.231-1.707,14.976,1.026,21.85s8.737,12.71,16.04,13.885a5.788,5.788,0,0,1,3.246,1.11c1.811,1.74.234,4.907,1.142,7.244.987,2.538,4.317,3.038,7.037,3.005a86.487,86.487,0,0,0,17.28-1.947,58,58,0,0,1-2.1-5.8A86.169,86.169,0,0,1,335.056,476.1Z" transform="translate(-293.335 -350.522)"/></g><path d="M384.37,452.374c1.6,1.207,3.343-3.395,2.35-4.544C386.454,448.129,384.123,452.205,384.37,452.374Z" transform="translate(894.868 101.105)" opacity="0.1"/><path d="M394.91,579.2c1.889-.649,3.895-1.3,5.128-2.856,1.019-1.253,1.857-6.225-.3-3.843C397.909,574.55,397.046,577.244,394.91,579.2Z" transform="translate(891.164 57.584)" opacity="0.1"/><path d="M423.221,571.34a7.458,7.458,0,0,1-1.733,4.226c-.2.208-.649.338-.708.058a16.418,16.418,0,0,0,3.35-2.363c2.194-2.174,2.493-7.53-.85-8.951C423.247,566.66,423.578,568.951,423.221,571.34Z" transform="translate(882.087 60.236)" opacity="0.1"/><path d="M445.592,556.732s-18.422-7.238-25.083-6.491,7.543,11.243,7.543,11.243l8.491,5.725s5.193-1.947,5.537-2.1S445.592,556.732,445.592,556.732Z" transform="translate(882.805 65.191)" fill="#454b69"/><path d="M264.84,439s13.84-8.023,32.106,1.947,21.311,68.646,21.311,68.646-7.472,59.779,21.337,46.478c0,0,52.58-16.326,57.844-12.73,0,0,4.985,0-4.979,2.214S344,559.967,344,559.967s-12.444,4.349-17.715,0-20.208.558-22.148-29.341a519.94,519.94,0,0,0-6.92-56.189l-5.135-15.222Z" transform="translate(936.8 105.274)" fill="#565661"/><path d="M259.406,532.052s6.089-60.616-3.895-82.486c-8.685-19.059,24.9-10.146,33.664-7.549a6.381,6.381,0,0,1,3.362,2.4c5.193,7.3,23.823,36.572,18.332,75.735,0,0-2.214,34.878,11.626,40.409l-42.642-13.736c-3.46-1.117-6.972-2.045-10.516-2.85C264.82,542.951,257.459,540.036,259.406,532.052Z" transform="translate(940.572 104.672)" fill="#fff"/><path d="M694.53,633.065h5.537l3.629-74.417.247-4.232-4.706-1.655-.312,4.5Z" transform="translate(808.731 116.823)" fill="#565661"/><path d="M701.3,557.258l4.771,1.389.247-4.232-4.706-1.655Z" transform="translate(806.356 116.823)" opacity="0.1"/><path d="M639.4,696.867a12.479,12.479,0,0,1-.779,2.973,5.252,5.252,0,0,1-2.369,2.96,6.259,6.259,0,0,1-2.4.474c-3.057.182-6.29.136-8.919-1.422a16.236,16.236,0,0,1-3.057-2.551,139.505,139.505,0,0,1-16.047-19.085c-.8-1.149-1.623-2.505-1.266-3.895a60.505,60.505,0,0,0,17.377-7.952,8.388,8.388,0,0,1,2.441-1.3,13.266,13.266,0,0,1,4.583-.169c1.474.24,1.539.286,2.1,1.947.935,2.811.779,5.842,1.831,8.653a26.826,26.826,0,0,0,2.428,4.44C638.039,686.481,640.123,691.836,639.4,696.867Z" transform="translate(817.633 24.283)" fill="#a26565"/><path d="M639.4,700.951a12.478,12.478,0,0,1-.779,2.973,5.252,5.252,0,0,1-2.369,2.96,6.256,6.256,0,0,1-2.4.474c-3.057.182-6.29.136-8.919-1.422a16.242,16.242,0,0,1-3.057-2.551A139.49,139.49,0,0,1,605.83,684.3c-.8-1.149-1.623-2.506-1.266-3.895a60.27,60.27,0,0,0,5.946-1.986l.1.071a21.811,21.811,0,0,1,4.849,5.459L620,690.344a18.83,18.83,0,0,0,2.85,3.44,19.083,19.083,0,0,0,4.408,2.649c2.136,1.032,4.271,2.064,6.491,2.9C635.183,699.906,637.611,700.134,639.4,700.951Z" transform="translate(817.633 20.199)" opacity="0.1"/><path d="M653.769,602.552a19.541,19.541,0,0,1-1.623,3.1,132.524,132.524,0,0,0-13.839,32.385c-.9-.2-1.4,1.019-1.4,1.947s0,2.1-.857,2.434c-.253.1-.539.1-.786.208-.545.247-.7.941-.779,1.539l-.766,5.621c-.266,1.947-.5,4.057.454,5.777a9.233,9.233,0,0,0,2.512,2.6l12.671,10c.519.409,1.162.844,1.785.617,1.422-.519.162-3.064,1.3-4.1.753-.708,1.947-.175,2.993-.26a3.386,3.386,0,0,0,2.739-2.675,12.718,12.718,0,0,0,.072-4.064,3.686,3.686,0,0,1,.208-1.824,4.426,4.426,0,0,1,1.551-1.486,16.657,16.657,0,0,0,6.822-14.047,7.782,7.782,0,0,1,.091-2.486,6.547,6.547,0,0,1,1.175-2.051,190.007,190.007,0,0,0,12.249-19.727c2.194-3.895,4.427-7.848,5.193-12.236a1.136,1.136,0,0,0-.935-1.558,44.126,44.126,0,0,0-5.8-1.389c-5.966-1.207-11.723-3.07-17.527-4.862S655.515,597.865,653.769,602.552Z" transform="translate(807.455 49.277)" fill="#454b69"/><path d="M587.5,638.094l9.14,1.1L638.71,543.7l11.347-.831,19.935,5.816,3.869,113.7h9.133l-3.6-117.851,21.869.558,39.026,97.15h8.3L707.551,528.7l-1.577-4.375-61.174-2.1-15.248,8.549-.195.493Z" transform="translate(846.284 127.535)" fill="#565661"/><path d="M686.94,612.2c13.145,3.96,26.79,8.283,26.79,8.283s12.444,4.343,17.715,0a7.966,7.966,0,0,1,2.2-1.214,10.84,10.84,0,0,1-2.2,1.214l33.69-10.86-1.558-4.369-61.175-2.1-15.248,8.549Z" transform="translate(788.701 46.605)" opacity="0.1"/><path d="M734.767,585.067,709.86,579.53s-59.513,11.074-63.94,15.5c0,0,47.608,9.685,52.866,12.983S735.325,614.96,734.767,585.067Z" transform="translate(803.093 54.896)" fill="#fff"/><path d="M615.376,710.835c-1.5,2.856-5.193,3.661-8.439,3.707a35.633,35.633,0,0,1-13.19-2.356,76.749,76.749,0,0,0-7.186-2.785c-3.694-1.013-7.79-.928-11.035-2.96a12.982,12.982,0,0,1-4.148-4.5c-.188-.318-.37-.649-.539-.987a13.9,13.9,0,0,1-1.409-9.789c.863-3.259,4-6.848,7.634-6.8,4.317.065,9.465,2.11,13.632,3.168,5.193,1.3,10.386,2.8,14.976,5.543a22.4,22.4,0,0,1,9.049,9.679,16.407,16.407,0,0,1,.857,2.415A7.57,7.57,0,0,1,615.376,710.835Z" transform="translate(830.06 18.112)" fill="#a26565"/><path d="M616.337,719.8c-1.5,2.856-5.193,3.661-8.439,3.707a35.635,35.635,0,0,1-13.19-2.356,76.771,76.771,0,0,0-7.186-2.785c-3.694-1.013-7.79-.928-11.035-2.96a12.982,12.982,0,0,1-4.148-4.5c-.188-.318-.37-.649-.539-.987.649.052,1.246.117,1.571.149,3.986.383,7.79,1.837,11.594,2.934a65.12,65.12,0,0,0,16.228,2.532c3.895.11,7.958-.175,11.36-2.077a29.8,29.8,0,0,1,3.155-1.733,16.418,16.418,0,0,1,.857,2.415A7.7,7.7,0,0,1,616.337,719.8Z" transform="translate(829.099 9.147)" opacity="0.1"/><path d="M635.623,533.646c-8.439-1.383-17.033-1.72-25.589-2.058l-10.464-.415a4.746,4.746,0,0,0-2.2.266,14.364,14.364,0,0,0-1.72,1.3,7.115,7.115,0,0,1-3.661.863,182.267,182.267,0,0,0-26.718,3.466c-4.544.928-9.263,2.142-12.678,5.278-3.609,3.317-5.193,8.374-5.316,13.268s1.162,9.7,2.519,14.4a65.623,65.623,0,0,1,2.837,17.436,32.6,32.6,0,0,0,.188,4.914,23.506,23.506,0,0,0,1.37,4.544l4.778,12.756c.422,1.117.837,2.227,1.3,3.317s.9,1.947,1.3,2.973c.584,1.4,1.045,2.856,1.506,4.3l3.181,9.99.415,1.3c1.149,3.6,2.324,7.257,4.492,10.347s5.524,5.583,9.3,5.771a28.486,28.486,0,0,1,3.648.1,14.753,14.753,0,0,1,2.993,1.084,22.829,22.829,0,0,0,8.939,1.746c2.824,0,5.959-.785,7.491-3.161a11.017,11.017,0,0,0,1.3-4.427c.409-3.077.8-6.29-.24-9.211-.649-1.746-1.74-3.246-2.493-4.966-1.052-2.343-1.4-4.933-2.077-7.406a28.288,28.288,0,0,0-8.633-13.736,135.376,135.376,0,0,1-3.246-17.773,15.638,15.638,0,0,0-.785-3.895c-.759-1.947-2.3-3.525-2.941-5.511-.6-1.844-.422-3.973-1.519-5.563,9.133,2.512,18.176,1.947,27.66,1.8a75.531,75.531,0,0,0,9.088-.519,28.571,28.571,0,0,1,4.258-.454c2.934,0,5.686,1.3,8.38,2.441,7.614,3.246,15.638,5.8,23.908,6.147,8.536.357,16.975-1.649,25.316-3.635,3.668-.876,7.478-1.824,10.386-4.232s4.544-6.751,2.752-10.055c-1.363-2.486-4.187-3.707-6.823-4.745-7.3-2.882-14.631-5.693-21.661-9.179C655.415,547.278,647.385,535.594,635.623,533.646Z" transform="translate(837.707 71.874)" fill="#454b69"/><path d="M656.789,482.148c-1.019,2.207-2.733,4.012-4,6.089a15.429,15.429,0,0,0-1.947,11.457,13.035,13.035,0,0,0,7.3,8.887,18.325,18.325,0,0,0,5.063,1.22c2.285.279,4.719.338,6.738-.766a9.84,9.84,0,0,0,3.59-3.752,38.045,38.045,0,0,0,3.648-9.49c1.681-6.05,3.116-12.256,2.908-18.533-.071-2.162-.5-4.6-2.292-5.842a7.707,7.707,0,0,0-3.012-.987l-8.562-1.532c-1.655-.3-4.544-1.513-5.979-.318s-1.545,4.726-1.792,6.381A26.953,26.953,0,0,1,656.789,482.148Z" transform="translate(801.494 94.005)" fill="#e2abab"/><path d="M810.257,447.106l-2.24,18.773a86.324,86.324,0,0,0-.8,10.1c0,1.882.058,3.973-1.188,5.381A4.907,4.907,0,0,1,803.8,482.7c-2.72.844-5.687.091-8.283-1.071a6.851,6.851,0,0,1-3.758-3.1,7.709,7.709,0,0,1-.487-3.291c0-11.2,1.058-22.875,6.907-32.418a7.073,7.073,0,0,1,2.057-2.376c1.623-1.039,3.746-.747,5.583-.182,1.13.344,4.181.727,4.9,1.733S810.413,445.814,810.257,447.106Z" transform="translate(752.102 103.939)" fill="#a1616a"/><path d="M23.369,0A23.369,23.369,0,1,1,0,23.369,23.369,23.369,0,0,1,23.369,0Z" transform="translate(1479.574 436.42)" fill="#e2abab"/><path d="M715.252,348.621a12.055,12.055,0,0,1-1.448,5.193q17.9-2.726,35.7-6.076A16.767,16.767,0,0,1,741.223,338a27.5,27.5,0,0,1-1.052-6.939,80.206,80.206,0,0,1,.214-11.172c-4.155.435-8.088,1.993-12.048,3.33a118.772,118.772,0,0,1-12.132,3.395c-1.98.441-3.973.818-5.972,1.168-2.337.415-3.46.409-1.837,2.46C712.752,335.722,715.862,341.292,715.252,348.621Z" transform="translate(781.44 145.994)" fill="#e2abab"/><path d="M705.792,356.184c-3.083.461-6.316.98-8.776,2.889a33.145,33.145,0,0,0-2.668,2.564c-4.888,4.745-11.788,6.654-17.721,10a7.793,7.793,0,0,0-2.519,1.98c-.649.9-.98,2.051-1.662,2.947-.792,1.039-2.045,1.688-2.661,2.837a8.009,8.009,0,0,0-.545,3.59c-.149,2.681-1.162,5.226-1.947,7.79-3.6,12.275-1.629,25.965-7.082,37.559a5.278,5.278,0,0,0,2.869,3,16.3,16.3,0,0,0,4.258.915l12.08,1.5a9.538,9.538,0,0,0,5.135-.305,60.329,60.329,0,0,0-3.044,12.288,61.2,61.2,0,0,1-1.363,7.608c-1.662,5.712-5.842,10.471-10.8,13.723a3.991,3.991,0,0,0-1.525,1.409c-.649,1.3.312,2.752.993,4.025,1.98,3.687,1.707,8.114,1.681,12.295s.4,8.77,3.317,11.769c1.727,1.772,4.09,2.733,6.388,3.648l18.9,7.549a65.86,65.86,0,0,0,9.62,3.246c4.979,1.136,10.152,1.09,15.261.87q5.063-.214,10.114-.649a7.868,7.868,0,0,0,3.823-1.006,7.14,7.14,0,0,0,2.24-3.038c2.629-5.719,3.512-12.392,7.588-17.183,2.8-3.291,7.141-5.92,7.458-10.224.149-2.142-.8-4.226-.818-6.375,0-2.642,1.383-5.154,1.3-7.79-.175-4.291-4.219-7.562-4.862-11.808-1.636-10.763,3.83-21.512,7.186-31.866.6-1.85,1.383-3.895,3.161-4.687s4.284-.376,4.921-2.129a37.835,37.835,0,0,0,1.779-14.242c-.117-2.707-1.078-5.355-.967-8.069.078-1.909.688-3.765.85-5.667a24.057,24.057,0,0,0-1.3-8.51,13.318,13.318,0,0,0-1.013-2.869,13.622,13.622,0,0,0-1.688-2.317l-3.161-3.759c-1.48-1.759-3.044-3.583-5.193-4.473-.695-1.72-2.914-2.908-4.505-3.856a46.151,46.151,0,0,0-4.959-2.434l-17.877-7.893a7.323,7.323,0,0,0-2.123-.688,6.875,6.875,0,0,0-3.155.649C717.328,353.159,711.635,355.314,705.792,356.184Z" transform="translate(798.079 135.309)" fill="#2097d0"/><path d="M699.38,295.822c-.688-2.421-2.447-4.511-2.713-7.017-.24-2.227.74-4.382,1.3-6.55s.539-4.817-1.181-6.258c-.286-.247-.649-.467-.753-.831-.208-.649.448-1.24.649-1.9.37-1.3-1.233-2.733-.649-3.979.331-.682,1.162-.922,1.889-1.136,2.778-.824,5.6-2.655,6.2-5.492,2.175.909,4.492-.8,6.16-2.454s3.719-3.544,6.017-3.044l-.513,1.045a16.618,16.618,0,0,1,10.99-.123h-1.091a15.073,15.073,0,0,1,8.692,2.941c-.279,0-.3.415-.195.649.909,2.123,3.246,3.246,5.5,3.771,1.357.324,2.83.558,3.823,1.532s1.013,3.005-.3,3.473a34.143,34.143,0,0,1,7.536,4.09c.649.474,1.383,1.117,1.3,1.947a6.328,6.328,0,0,1-.4,1.214,4.2,4.2,0,0,0,.136,2.077l.72,2.973c.792,3.3,1.415,7.283-.993,9.679a8.887,8.887,0,0,1-1.564,10.49,4.323,4.323,0,0,1-3.246,5.589c.8,1.246.065,3.025-1.194,3.8a6.94,6.94,0,0,1-4.31.649,18.4,18.4,0,0,0-4.421-.247c-2.136.331-4.226,1.785-6.284,1.136a14.093,14.093,0,0,1-2.2-1.181,17.855,17.855,0,0,0-4.713-1.3,21.773,21.773,0,0,1-7.614-3.246,8.927,8.927,0,0,1-3.5-3.895c-1.428-3.609.974-8.341-1.551-11.282a4.46,4.46,0,0,0-6.069-.273c-.825.734-.935,2.278-1.792,2.83A11.326,11.326,0,0,1,699.38,295.822Z" transform="translate(785.557 168.031)" fill="#464353"/><path d="M650.606,600.282a10.709,10.709,0,0,1-2.356-2.6,4.843,4.843,0,0,1-.714-3.356,9.6,9.6,0,0,0,2.525,8.257c1.629,1.668,4.687,3.3,7.069,2.733C656.792,603.411,652.118,601.568,650.606,600.282Z" transform="translate(802.575 49.703)" opacity="0.1"/><path d="M777.815,441s-13.839-8.023-32.106,1.947S724.4,511.594,724.4,511.594s7.472,59.779-21.337,46.478c0,0-52.58-16.326-57.844-12.73,0,0-4.985,0,4.979,2.214s48.458,14.411,48.458,14.411,12.444,4.349,17.715,0,20.208.558,22.148-29.341a519.955,519.955,0,0,1,6.92-56.189l5.135-15.222Z" transform="translate(803.778 104.572)" fill="#565661"/><path d="M818.619,534.052s-6.089-60.616,3.895-82.486c8.685-19.059-24.9-10.146-33.664-7.549a6.38,6.38,0,0,0-3.363,2.4c-5.193,7.3-23.823,36.572-18.332,75.735,0,0,2.214,34.878-11.626,40.409l42.642-13.736c3.46-1.116,6.972-2.045,10.516-2.85C813.206,544.951,820.567,542.036,818.619,534.052Z" transform="translate(764.635 103.97)" fill="#fff"/><ellipse cx="63.252" cy="10.159" rx="63.252" ry="10.159" transform="translate(1631.79 735.574)" fill="#f9f9f9"/><rect width="4.07" height="91.638" transform="translate(1693.003 551.116)" fill="#535461"/><path d="M1037.61,588.569l-.253,4.128-.363,5.842-.15,2.428-.357,5.842-.156,2.428-.364,5.842-4.1,66.257a11.23,11.23,0,0,1-11.2,10.49H999.324A11.217,11.217,0,0,1,988.133,681.3l-4.116-66.264-.357-5.842-.149-2.428-.37-5.842-.149-2.428-.357-5.842-.26-4.128a5.842,5.842,0,0,1,5.8-6.173h43.635a5.842,5.842,0,0,1,5.8,6.219Z" transform="translate(685.046 53.906)" fill="#565661"/><path d="M1002.542,517.36l-.364,5.823h-54l-.363-5.823Z" transform="translate(719.861 129.244)" fill="#9d9cb5"/><path d="M1002.306,530.08l-.357,5.829H948.973l-.363-5.829Z" transform="translate(719.584 124.781)" fill="#9d9cb5"/><path d="M1002.071,542.8l-.364,5.823H949.764L949.4,542.8Z" transform="translate(719.306 120.318)" fill="#9d9cb5"/><path d="M944.948,494.3c23.706,17.15,33.58,43.973,33.58,43.973s-28.562-.98-52.275-18.13S892.68,476.18,892.68,476.18,921.248,477.16,944.948,494.3Z" transform="translate(716.514 91.158)" fill="#3dac29"/><path d="M892.68,476.18s29.646,16.455,39.162,30.081,46.686,32.015,46.686,32.015" transform="translate(716.514 91.158)" fill="none" stroke="#535461" stroke-miterlimit="10" stroke-width="2"/><path d="M981.413,445.547c12.9,9.328,18.28,23.934,18.28,23.934s-15.579-.539-28.452-9.867S953,435.68,953,435.68,968.514,436.212,981.413,445.547Z" transform="translate(695.349 105.368)" fill="#3dac29"/><path d="M953,435.68l21.311,16.371,25.414,17.429" transform="translate(695.349 105.368)" fill="none" stroke="#535461" stroke-miterlimit="10" stroke-width="2"/><path d="M1044.105,475.021c-14.82,16.287-17.955,37.572-17.955,37.572s20.9-5.128,35.7-21.422,17.955-37.572,17.955-37.572S1058.925,458.735,1044.105,475.021Z" transform="translate(669.684 99.08)" fill="#3dac29"/><path d="M1079.82,453.61s-19.305,16.7-24.213,28.2S1026.15,512.6,1026.15,512.6" transform="translate(669.684 99.077)" fill="none" stroke="#535461" stroke-miterlimit="10" stroke-width="2"/><path d="M568.218,411.951v1.48H524.33v-1.2a14.75,14.75,0,0,0,3.389-1.8,14.418,14.418,0,0,0,6.024-11.723,14.235,14.235,0,0,0-.448-3.551,14.431,14.431,0,0,0-7.971-9.562h42.6a14.43,14.43,0,0,0-7.971,9.562,14.226,14.226,0,0,0-.441,3.551,14.41,14.41,0,0,0,6.017,11.723A14.854,14.854,0,0,0,568.218,411.951Z" transform="translate(845.755 122.943)" fill="#dfe6f5"/><path d="M568.456,385.59a14.43,14.43,0,0,0-7.971,9.562H533.831a14.43,14.43,0,0,0-7.971-9.562Z" transform="translate(845.218 122.943)" opacity="0.1"/><path d="M446.92,373.94v8.335c0,4.6,3.363,8.328,7.517,8.328H583.557c4.154,0,7.523-3.733,7.523-8.328V373.94Z" transform="translate(872.915 127.03)" fill="#dfe6f5"/><path d="M568.218,425.375v1.48H524.33v-1.2a14.75,14.75,0,0,0,3.389-1.8h37.806a14.85,14.85,0,0,0,2.694,1.525Z" transform="translate(845.755 109.518)" opacity="0.1"/><rect width="72.891" height="4.395" rx="2.197" transform="translate(1355.583 533.829)" fill="#dfe6f5"/><path d="M591.08,229.247a7.517,7.517,0,0,0-7.523-7.517H454.437a7.511,7.511,0,0,0-7.517,7.517v92.911H591.08Z" transform="translate(872.915 180.435)" fill="#474157"/><path d="M589.272,236.48v79.844a3.7,3.7,0,0,1-3.7,3.707H456.68a3.7,3.7,0,0,1-3.7-3.707V236.48a3.649,3.649,0,0,1,.493-1.85,3.7,3.7,0,0,1,3.207-1.85H585.572a3.7,3.7,0,0,1,3.7,3.7Z" transform="translate(870.789 176.558)" fill="#4c4c78"/><circle cx="1.733" cy="1.733" r="1.733" transform="translate(1390.182 404.015)" fill="#fff"/><circle cx="4.278" cy="4.278" r="4.278" transform="translate(1387.637 505.371)" fill="#fff"/><path d="M589.279,236.48H453a3.7,3.7,0,0,1,3.7-3.7H585.579a3.7,3.7,0,0,1,3.7,3.7Z" transform="translate(870.782 176.558)" fill="#c8cad7"/><circle cx="0.928" cy="0.928" r="0.928" transform="translate(1326.541 410.26)" fill="#ededf4"/><circle cx="0.928" cy="0.928" r="0.928" transform="translate(1329.319 410.26)" fill="#ededf4"/><circle cx="0.928" cy="0.928" r="0.928" transform="translate(1332.097 410.26)" fill="#ededf4"/><rect width="108.236" height="59.033" rx="7.65" transform="translate(1338.445 427.627)" fill="#e8eaf2"/><path d="M224.656,61.058v2.834H116.42V61.058a.838.838,0,0,1,.839-.838H223.818a.837.837,0,0,1,.838.838Z" transform="translate(1222.024 367.407)" fill="#65617d"/><circle cx="0.715" cy="0.715" r="0.715" transform="translate(1339.401 428.749)" fill="#fa5959" opacity="0.8"/><circle cx="0.715" cy="0.715" r="0.715" transform="translate(1341.327 428.749)" fill="#fed253" opacity="0.8"/><circle cx="0.715" cy="0.715" r="0.715" transform="translate(1343.253 428.749)" fill="#8ccf4d" opacity="0.8"/><rect width="52.657" height="24.451" rx="7.65" transform="translate(1343.253 435.114)" fill="#6c63ff" opacity="0.2"/><rect width="52.657" height="1.678" rx="0.839" transform="translate(1343.253 467.021)" fill="#fff"/><rect width="52.657" height="1.678" rx="0.839" transform="translate(1343.253 470.563)" fill="#fff"/><rect width="52.657" height="1.678" rx="0.839" transform="translate(1343.253 474.104)" fill="#fff"/><rect width="52.657" height="1.678" rx="0.839" transform="translate(1343.253 477.646)" fill="#fff"/><rect width="52.657" height="1.678" rx="0.839" transform="translate(1343.253 481.187)" fill="#fff"/><rect width="38.583" height="47.75" rx="7.65" transform="translate(1402.028 435.114)" fill="#fff"/><rect width="6.959" height="1.678" rx="0.839" transform="translate(1404.172 440.616)" fill="#6c63ff" opacity="0.2"/><rect width="34.607" height="1.678" rx="0.839" transform="translate(1404.172 443.784)" fill="#e8eaf2"/><rect width="34.607" height="1.678" rx="0.839" transform="translate(1404.172 446.954)" fill="#e8eaf2"/><rect width="6.959" height="1.678" rx="0.839" transform="translate(1404.172 453.29)" fill="#6c63ff" opacity="0.2"/><rect width="34.607" height="1.678" rx="0.839" transform="translate(1404.172 456.46)" fill="#e8eaf2"/><rect width="34.607" height="1.678" rx="0.839" transform="translate(1404.172 459.628)" fill="#e8eaf2"/><rect width="6.959" height="1.678" rx="0.839" transform="translate(1404.172 465.966)" fill="#6c63ff" opacity="0.2"/><rect width="34.607" height="1.678" rx="0.839" transform="translate(1404.172 469.134)" fill="#e8eaf2"/><rect width="34.607" height="1.678" rx="0.839" transform="translate(1404.172 472.302)" fill="#e8eaf2"/><rect width="6.959" height="1.678" rx="0.839" transform="translate(1431.323 478.64)" fill="#6c63ff"/><rect width="6.959" height="1.678" rx="0.839" transform="translate(1388.951 461.306)" fill="#6c63ff"/><path d="M251.75,395.208a.084.084,0,0,1,.061.012Z" transform="translate(1101.525 69.132)" opacity="0.1"/></g></svg>